<?xml version="1.0" standalone="no"?>
<!DOCTYPE svg PUBLIC "-//W3C//DTD SVG 20010904//EN"
 "http://www.w3.org/TR/2001/REC-SVG-20010904/DTD/svg10.dtd">
<svg version="1.0" xmlns="http://www.w3.org/2000/svg"
 width="225.000000pt" height="225.000000pt" viewBox="0 0 225.000000 225.000000"
 preserveAspectRatio="xMidYMid meet">

<g transform="translate(0.000000,225.000000) scale(0.100000,-0.100000)"
fill="#2575e8" stroke="none">
<path d="M0 1125 l0 -1125 1125 0 1125 0 0 1125 0 1125 -1125 0 -1125 0 0
-1125z m1315 625 c16 -17 16 -24 5 -44 -7 -14 -26 -30 -41 -37 -31 -12 -30
-29 2 -29 16 0 19 -7 19 -55 0 -67 -23 -97 -67 -89 -28 5 -28 5 12 -36 38 -39
39 -42 22 -55 -18 -13 -17 -14 8 -27 l26 -14 -21 -27 c-12 -15 -18 -27 -13
-27 4 0 17 13 28 30 15 22 25 28 40 24 20 -6 20 -6 0 9 -19 15 -19 16 19 71
45 65 96 108 146 124 51 16 219 11 212 -7 -3 -7 0 -16 6 -20 8 -5 9 -17 3 -37
-5 -16 -21 -67 -35 -114 -14 -47 -27 -96 -29 -110 -1 -15 -13 -30 -29 -40 -25
-13 -30 -13 -55 2 -16 9 -34 27 -40 40 -8 14 -13 17 -13 7 0 -8 5 -20 12 -27
6 -6 13 -17 14 -24 2 -7 8 -38 15 -68 14 -66 6 -127 -19 -133 -25 -5 97 -32
134 -29 52 5 59 -15 40 -108 -9 -44 -16 -99 -16 -123 0 -38 -45 -147 -61 -147
-3 0 -14 18 -24 40 -18 39 -18 41 1 63 36 42 44 67 44 137 0 82 5 79 -135 83
-84 2 -90 3 -93 24 -2 12 -15 29 -30 39 -26 17 -27 17 -11 -2 9 -10 20 -29 23
-41 4 -11 13 -24 21 -27 21 -8 19 -30 -15 -126 -39 -108 -49 -213 -26 -258 9
-17 21 -43 26 -57 9 -25 9 -25 -41 -25 -28 0 -48 4 -44 9 3 5 -2 28 -11 51
-16 39 -16 46 0 94 19 62 20 103 5 177 -6 30 -11 59 -12 65 0 9 -10 8 -37 -1
-31 -11 -40 -11 -51 1 -8 7 -46 18 -85 23 -39 6 -99 19 -134 30 -35 11 -65 19
-66 18 -7 -11 -34 -110 -34 -126 0 -11 27 -57 60 -103 l60 -83 -3 -67 c-2 -37
-6 -70 -10 -74 -12 -12 -78 40 -71 56 4 8 7 39 8 68 1 47 -3 59 -29 89 -19 21
-43 37 -65 42 -29 6 -36 12 -38 35 -2 16 -10 39 -18 51 -13 20 -12 27 11 70
14 27 25 55 25 64 0 9 -11 -6 -24 -34 -22 -47 -80 -115 -98 -115 -17 0 -68
-58 -83 -93 -21 -51 -20 -129 4 -158 10 -13 26 -39 35 -56 l17 -33 -46 0 c-31
0 -45 4 -45 14 0 7 -12 30 -26 51 -15 22 -23 44 -19 54 18 44 22 127 9 160
-12 29 -12 37 -1 50 28 32 31 44 9 30 -26 -17 -37 -7 -23 19 17 32 14 60 -20
177 -30 106 -31 108 -14 152 19 50 63 83 110 83 17 0 54 9 83 20 57 22 154 27
198 9 29 -10 86 -3 67 9 -19 12 -7 53 22 76 17 13 25 27 21 35 -4 6 -11 9 -15
7 -3 -3 -7 3 -8 12 -1 9 -6 35 -12 57 -10 41 -10 42 33 100 6 8 3 26 -8 49 -9
20 -14 42 -10 49 18 31 50 57 71 57 29 0 73 -27 73 -45 0 -19 30 -41 38 -28 4
5 20 16 37 24 16 8 36 27 43 42 16 32 32 34 57 7z"/>
<path d="M1026 1714 c-21 -21 -20 -34 3 -34 10 0 26 -10 34 -22 13 -19 18 -21
26 -9 7 12 13 12 24 3 11 -10 17 -9 28 5 12 15 12 16 -5 10 -12 -5 -22 -3 -27
5 -5 7 -14 13 -21 13 -7 0 -14 10 -16 23 -4 26 -24 29 -46 6z"/>
<path d="M1256 1705 c-10 -15 -15 -29 -13 -32 8 -8 58 29 54 40 -7 21 -25 17
-41 -8z"/>
<path d="M1195 1670 c-3 -5 1 -10 9 -10 9 0 16 5 16 10 0 6 -4 10 -9 10 -6 0
-13 -4 -16 -10z"/>
<path d="M1226 1642 c-3 -6 -1 -14 5 -17 15 -10 25 3 12 16 -7 7 -13 7 -17 1z"/>
<path d="M1170 1619 c0 -4 -2 -14 -5 -22 -5 -10 1 -13 25 -9 36 5 40 28 5 34
-14 3 -25 2 -25 -3z"/>
<path d="M1140 1485 l-23 -24 36 -36 c19 -19 44 -35 55 -35 25 0 46 25 36 42
-13 22 -67 78 -74 78 -4 0 -17 -11 -30 -25z"/>
<path d="M1016 1381 c-3 -5 13 -30 36 -56 l41 -46 21 21 c14 15 17 24 9 27 -6
2 -30 17 -52 34 -45 32 -47 33 -55 20z"/>
<path d="M1242 1355 c3 -28 10 -31 26 -12 8 9 6 16 -8 25 -18 11 -20 9 -18
-13z"/>
<path d="M986 1352 c5 -4 25 -21 44 -37 29 -25 32 -26 15 -5 -25 31 -47 49
-59 50 -7 0 -7 -3 0 -8z"/>
<path d="M1361 1356 c2 -2 15 -9 29 -15 24 -11 24 -11 6 3 -16 13 -49 24 -35
12z"/>
<path d="M1531 1324 c0 -11 3 -14 6 -6 3 7 2 16 -1 19 -3 4 -6 -2 -5 -13z"/>
<path d="M987 1319 c7 -7 15 -10 18 -7 3 3 -2 9 -12 12 -14 6 -15 5 -6 -5z"/>
<path d="M1468 1303 c7 -3 16 -2 19 1 4 3 -2 6 -13 5 -11 0 -14 -3 -6 -6z"/>
<path d="M1173 1218 c-18 -44 -29 -78 -26 -74 3 3 18 -3 33 -14 25 -18 28 -25
34 -122 4 -56 9 -104 11 -106 2 -2 16 0 32 5 l28 10 -3 106 c-3 93 -8 117 -37
187 -18 45 -34 83 -36 85 -2 2 -19 -33 -36 -77z"/>
<path d="M590 1164 c-6 -14 -10 -37 -9 -52 1 -19 4 -15 10 16 4 23 11 47 14
52 3 6 4 10 0 10 -3 0 -10 -12 -15 -26z"/>
</g>
</svg>